<svg xmlns="http://www.w3.org/2000/svg" xmlns:xlink="http://www.w3.org/1999/xlink" width="567" zoomAndPan="magnify" viewBox="0 0 425.03998 283.499996" height="378" preserveAspectRatio="xMidYMid meet" version="1.0"><defs><clipPath id="2b9dcd7f99"><path d="M 0 0.0703125 L 424.046875 0.0703125 L 424.046875 282.929688 L 0 282.929688 Z M 0 0.0703125 " clip-rule="nonzero"/></clipPath><clipPath id="ea52500e34"><path d="M 0 106 L 424.046875 106 L 424.046875 168 L 0 168 Z M 0 106 " clip-rule="nonzero"/></clipPath></defs><g clip-path="url(#2b9dcd7f99)"><path fill="#ffffff" d="M 0 0.0703125 L 424.292969 0.0703125 L 424.292969 282.929688 L 0 282.929688 Z M 0 0.0703125 " fill-opacity="1" fill-rule="nonzero"/><path fill="#345744" d="M 0 0.0703125 L 424.292969 0.0703125 L 424.292969 282.929688 L 0 282.929688 Z M 0 0.0703125 " fill-opacity="1" fill-rule="nonzero"/></g><g clip-path="url(#ea52500e34)"><path stroke-linecap="butt" transform="matrix(1.277681, 0, 0, 1.277681, -63.98941, 109.747118)" fill="none" stroke-linejoin="miter" d="M 76.197886 8.654405 C 77.277112 8.654405 77.815196 9.082427 77.815196 9.93847 C 77.815196 11.213362 76.830747 12.644177 74.85879 14.230914 C 72.984668 15.725932 70.676409 17.025283 67.943186 18.12591 C 65.069327 19.260167 62.424765 19.886913 60.003386 20.000033 C 56.423292 23.953117 54.631716 27.050159 54.631716 29.297272 C 54.631716 31.082733 55.478587 32.14973 57.169272 32.495204 C 57.169272 29.36759 58.245441 26.536533 60.400835 23.998977 C 61.733816 22.433641 63.247178 21.345243 64.937863 20.730727 C 65.772505 20.418882 66.649949 20.26296 67.570195 20.26296 C 68.490442 20.26296 69.205849 20.486143 69.716418 20.932508 C 70.226986 21.375816 70.480742 21.947531 70.480742 22.641537 C 70.480742 23.338601 70.333992 24.069295 70.037434 24.839733 C 69.740876 25.610172 69.328141 26.377554 68.796171 27.144935 C 68.261144 27.909259 67.616055 28.646068 66.857845 29.358418 C 66.099636 30.070768 65.255822 30.700571 64.329461 31.24477 C 62.302473 32.437115 60.186824 33.033288 57.985571 33.033288 L 57.829648 33.033288 C 57.783789 33.033288 57.731815 33.030231 57.673726 33.018002 C 57.744044 35.03276 58.083404 36.442174 58.697921 37.240128 C 58.74378 37.298217 58.768238 37.344076 58.768238 37.380764 L 58.768238 37.466368 C 58.768238 37.524457 58.716264 37.551973 58.612316 37.551973 C 58.172066 37.551973 57.759331 36.637841 57.377168 34.80652 C 57.260991 34.250092 57.193731 33.64169 57.169272 32.981314 C 55.466358 32.752017 54.325986 31.87763 53.7451 30.358154 C 53.561662 29.859814 53.466886 29.2881 53.466886 28.636896 C 53.466886 25.928131 54.702034 22.983954 57.169272 19.81048 C 55.221774 19.37023 53.983569 18.367436 53.4516 16.805158 C 53.289563 16.31599 53.207016 15.79625 53.207016 15.239822 C 53.207016 14.683394 53.356823 14.102508 53.659496 13.494106 C 53.959111 12.885704 54.381018 12.295645 54.919102 11.720874 C 55.457186 11.146102 56.099219 10.60496 56.848256 10.094392 C 57.594237 9.586881 58.413592 9.140515 59.306323 8.758353 C 61.253821 7.923711 63.234949 7.507919 65.249707 7.507919 C 66.188297 7.507919 66.659121 7.605752 66.659121 7.801419 C 66.659121 7.896196 66.582689 7.942055 66.432881 7.942055 L 65.164103 7.871737 C 62.718266 7.871737 60.275486 8.69415 57.829648 10.338976 C 56.255141 11.393743 55.13617 12.579974 54.475794 13.900726 C 54.127262 14.585561 53.956054 15.19702 53.956054 15.735104 C 53.956054 16.273188 54.032486 16.719554 54.188408 17.0742 C 54.34433 17.425789 54.567513 17.75292 54.857956 18.055592 C 55.484702 18.703739 56.359089 19.156219 57.481117 19.409975 C 59.914725 16.398537 62.865016 13.87321 66.328933 11.833994 C 69.942658 9.71223 73.232309 8.654405 76.197886 8.654405 Z M 77.396347 9.990444 C 77.396347 9.378984 76.946924 9.070197 76.041964 9.070197 C 74.37268 9.070197 71.981874 10.143309 68.863432 12.286473 C 65.830594 14.347091 63.020938 16.762356 60.437522 19.532266 C 63.644627 19.183735 67.27058 17.869097 71.315384 15.588354 C 73.712304 14.230914 75.467193 12.916277 76.580048 11.641384 C 77.124247 11.017695 77.396347 10.467382 77.396347 9.990444 Z M 57.673726 32.565522 C 57.753216 32.577751 57.835763 32.583866 57.915253 32.583866 L 58.17818 32.583866 C 59.64874 32.583866 61.26605 31.92349 63.027053 30.602737 C 64.589331 29.419564 65.962057 27.973462 67.145231 26.258319 C 68.303947 24.564577 68.881776 23.176564 68.881776 22.088166 C 68.881776 21.598999 68.753369 21.253524 68.499614 21.042571 C 68.245858 20.834675 67.814779 20.730727 67.206377 20.730727 C 66.597975 20.730727 65.928427 20.871362 65.197733 21.149576 C 64.467039 21.42779 63.745517 21.819124 63.033167 22.329693 C 62.320817 22.840261 61.642097 23.454778 60.99395 24.173243 C 60.342746 24.891707 59.771032 25.689662 59.272692 26.570163 C 58.205696 28.468744 57.673726 30.462102 57.673726 32.547178 Z M 75.442734 31.975464 C 75.442734 32.357626 75.720948 32.547178 76.277376 32.547178 C 76.833804 32.547178 77.42692 32.400428 78.05978 32.10387 C 78.689583 31.81037 79.316329 31.437379 79.93696 30.9849 C 80.557591 30.53242 81.156822 30.037138 81.734651 29.499053 C 82.315537 28.960969 82.841392 28.447343 83.315273 27.961233 L 84.51679 26.674111 C 84.840864 26.304178 85.060989 26.059595 85.177167 25.943417 L 85.522641 26.239975 C 85.397292 26.368382 85.16188 26.622137 84.819463 27.004299 C 84.477046 27.386461 84.061253 27.826712 83.569029 28.325051 C 83.076804 28.823391 82.52649 29.349246 81.918088 29.905674 C 81.309686 30.462102 80.673769 30.97267 80.013393 31.437379 C 78.472515 32.501319 77.124247 33.033288 75.965532 33.033288 C 75.479422 33.033288 75.075859 32.901824 74.7579 32.63584 C 74.439941 32.369855 74.280961 32.082469 74.280961 31.773682 C 74.280961 31.467952 74.293191 31.220311 74.323764 31.036874 C 74.351279 30.850378 74.412425 30.639425 74.507201 30.400956 C 74.59892 30.165544 74.730384 29.88733 74.90465 29.569371 C 75.078916 29.248355 75.31127 28.863136 75.601714 28.413713 L 78.258504 24.485087 L 91.692266 5.282207 C 92.526908 5.398384 93.330977 5.398384 94.10753 5.282207 C 83.055403 20.645122 77.332143 28.618552 76.937752 29.202496 C 76.543361 29.789497 76.255975 30.229747 76.06948 30.523248 C 75.882985 30.819805 75.745407 31.058275 75.653688 31.24477 C 75.513052 31.522984 75.442734 31.767567 75.442734 31.975464 Z M 86.63244 31.975464 C 86.63244 32.391256 86.910654 32.599152 87.467082 32.599152 C 88.243635 32.599152 89.078277 32.305652 89.971008 31.712536 C 91.894047 30.428472 93.896576 28.505432 95.98471 25.943417 C 95.98471 25.943417 97.299348 24.362795 99.928623 21.20155 C 100.485051 21.268811 100.989505 21.305498 101.438927 21.305498 C 101.891407 21.305498 102.267455 21.287155 102.570127 21.253524 L 100.867213 23.216309 L 94.715932 30.706686 C 94.309312 31.205025 94.10753 31.608588 94.10753 31.92349 C 94.10753 32.339282 94.385744 32.547178 94.939115 32.547178 C 95.495543 32.547178 96.073372 32.400428 96.669544 32.10387 C 97.265717 31.81037 97.86189 31.437379 98.458063 30.9849 C 99.057293 30.53242 99.638179 30.037138 100.206837 29.499053 C 100.772437 28.960969 101.28912 28.447343 101.753829 27.961233 L 103.575978 25.943417 L 103.924509 26.239975 L 103.245789 27.004299 C 102.912544 27.386461 102.499809 27.826712 102.013699 28.325051 L 100.396389 29.905674 C 98.182906 31.99075 96.348528 33.033288 94.887141 33.033288 C 94.41326 33.033288 94.021926 32.904882 93.716196 32.645012 C 93.407409 32.382084 93.242315 32.033552 93.220914 31.593302 C 93.196456 30.74643 93.493013 29.789497 94.10753 28.725557 C 91.441567 31.599416 89.182225 33.033288 87.329503 33.033288 C 86.286965 33.033288 85.620475 32.663355 85.330031 31.92349 C 85.250542 31.712536 85.201625 31.446551 85.192453 31.122478 C 85.180224 30.798404 85.256656 30.410128 85.424808 29.957648 C 85.592959 29.508225 85.846714 29.019058 86.183017 28.490145 C 86.51932 27.96429 86.928997 27.392576 87.415108 26.778059 L 90.542722 22.990069 C 91.03189 22.387781 91.545515 21.791609 92.089714 21.20155 C 92.542194 21.268811 92.906012 21.305498 93.184226 21.305498 L 93.777342 21.305498 C 94.275681 21.305498 94.59364 21.287155 94.731218 21.253524 C 93.376836 22.736313 92.426017 23.806367 91.881818 24.466743 L 88.424016 28.621609 C 87.207211 30.03408 86.611039 31.153051 86.63244 31.975464 Z M 114.661735 28.551291 C 114.359063 28.945683 113.98913 29.35536 113.548879 29.786439 C 112.020231 31.510755 110.305087 32.583866 108.403449 32.999658 C 107.883708 33.115835 107.422057 33.173924 107.021551 33.173924 C 106.624102 33.173924 106.284742 33.112778 106.006528 32.990486 C 105.728314 32.868194 105.49596 32.709215 105.309465 32.513548 C 104.951761 32.119157 104.77138 31.61776 104.77138 31.009358 C 104.77138 30.400956 104.869214 29.789497 105.067938 29.168865 C 105.263605 28.548234 105.547934 27.875629 105.917867 27.15105 C 106.290857 26.429528 106.74028 25.649917 107.275306 24.815275 L 109.030195 22.088166 L 110.647505 19.792137 C 111.271193 18.957495 111.956028 18.089222 112.695893 17.18732 L 115.00721 14.457154 C 118.853289 10.054647 122.023705 7.251106 124.512345 6.046531 C 125.172721 5.722458 125.765836 5.560421 126.285577 5.560421 C 127.132448 5.560421 127.554355 5.875322 127.554355 6.508183 C 127.554355 7.137986 127.395375 7.831992 127.077417 8.584087 C 126.759458 9.336182 126.300863 10.128022 125.70469 10.956549 C 125.108518 11.785077 124.374766 12.628891 123.506494 13.494106 C 122.638222 14.356263 121.650715 15.200077 120.550088 16.02249 C 118.211256 17.771264 115.581981 19.220422 112.662263 20.366908 C 110.078847 23.528153 108.388162 25.756922 107.587151 27.047101 C 106.789196 28.340338 106.278628 29.269756 106.058502 29.838413 C 105.838377 30.404013 105.728314 30.880951 105.728314 31.263114 C 105.728314 32.247563 106.16245 32.739788 107.030723 32.739788 C 108.907903 32.739788 110.647505 31.899031 112.243413 30.220575 C 112.790669 29.664147 113.27678 29.003771 113.704801 28.239447 C 114.294859 27.508753 114.677022 26.42647 114.851287 24.989541 C 114.884918 24.699098 114.903261 24.518717 114.903261 24.451457 L 114.695365 22.938095 C 114.765683 22.057593 115.123387 21.617343 115.771534 21.617343 C 116.572545 21.617343 116.890504 22.308292 116.728468 23.684075 C 116.65815 24.298592 116.462483 25.023171 116.138409 25.857813 C 115.814336 26.692455 115.484148 27.368118 115.147845 27.890915 C 115.123387 27.973462 115.114215 28.056009 115.12033 28.141614 C 115.126444 28.230275 115.129501 28.318937 115.129501 28.413713 C 115.129501 28.991542 115.453575 29.297272 116.101722 29.333959 C 116.740697 29.333959 117.575339 28.863136 118.605648 27.924546 C 119.287425 27.300857 119.889712 26.640481 120.41251 25.943417 L 120.776328 26.239975 C 120.580661 26.447871 120.311619 26.750544 119.969202 27.144935 C 119.626785 27.536269 119.241565 27.924546 118.813544 28.306708 C 117.771006 29.281985 116.83853 29.768095 116.016117 29.768095 C 115.193705 29.768095 114.741225 29.361475 114.661735 28.551291 Z M 126.964297 6.584615 C 126.964297 6.144365 126.738057 5.924239 126.285577 5.924239 C 125.325586 5.924239 123.738849 7.177731 121.525366 9.678599 L 119.44029 12.145838 L 113.233978 19.669845 C 115.505549 18.789343 117.783235 17.441076 120.063978 15.621984 C 122.045106 14.023018 123.702161 12.332333 125.035142 10.546872 C 126.322264 8.822556 126.964297 7.501804 126.964297 6.584615 Z M 129.994078 31.495468 C 129.257269 31.966292 128.462372 32.351511 127.612443 32.651126 C 126.759458 32.953799 125.952331 33.103606 125.188007 33.103606 C 124.423683 33.103606 123.839739 33.027174 123.442291 32.868194 C 123.041785 32.712272 122.714654 32.495204 122.457841 32.21699 C 121.369444 31.036874 121.375558 29.294214 122.476185 26.985956 C 122.953123 25.967876 123.668531 25.038458 124.631579 24.197701 C 125.594628 23.356944 126.438442 22.730199 127.169135 22.311349 C 128.581606 21.501165 129.908473 21.097602 131.149736 21.097602 C 132.375712 21.097602 133.020801 21.479764 133.075832 22.244089 C 133.158379 23.482294 131.651132 24.833619 128.560205 26.291949 C 127.422891 26.823919 125.992076 27.374232 124.267761 27.942889 C 123.582927 29.055745 123.240509 29.960705 123.240509 30.663883 C 123.240509 31.364004 123.423947 31.862344 123.787765 32.155844 C 124.154641 32.452402 124.686611 32.599152 125.386732 32.599152 C 126.08991 32.599152 126.848119 32.449345 127.664417 32.14973 C 128.480716 31.847057 129.24504 31.464895 129.95739 31.000186 C 130.66974 30.538534 131.31483 30.03408 131.895716 29.489881 C 132.473545 28.945683 132.987171 28.422885 133.433536 27.924546 C 133.879901 27.426206 134.24372 26.995127 134.528048 26.631309 C 134.812377 26.267491 135.004987 26.038194 135.108935 25.943417 L 135.47581 26.239975 C 135.326003 26.368382 135.096706 26.628252 134.787919 27.022643 C 134.482189 27.417034 134.093912 27.8634 133.626146 28.367854 C 133.155322 28.872308 132.617238 29.404277 132.008836 29.957648 C 131.400434 30.514076 130.727829 31.027702 129.994078 31.495468 Z M 124.66521 27.334487 C 128.165814 26.105454 130.419042 24.885593 131.424892 23.668789 C 131.761195 23.262168 131.929346 22.867777 131.929346 22.485615 C 131.929346 21.837468 131.629731 21.513395 131.027444 21.513395 C 129.960447 21.513395 128.627466 22.44587 127.0285 24.310821 C 125.918701 25.607115 125.129919 26.616023 124.66521 27.334487 Z M 159.814949 28.273077 C 156.977777 31.446551 154.718435 33.033288 153.036922 33.033288 C 151.566362 33.033288 150.832611 32.275079 150.832611 30.75866 C 150.832611 28.997657 151.554133 27.294743 153.003292 25.649917 C 155.611166 22.614021 158.362733 21.097602 161.257993 21.097602 C 162.126265 21.097602 162.771354 21.363587 163.187147 21.895557 C 163.315553 22.069823 163.379756 22.231859 163.379756 22.381667 C 163.379756 22.531474 163.376699 22.629308 163.370585 22.669053 C 163.36447 22.708798 163.361413 22.757714 163.361413 22.815803 L 171.979932 10.442924 L 175.630344 5.282207 C 176.058365 5.468702 176.458871 5.560421 176.828804 5.560421 C 177.198737 5.560421 177.53504 5.542077 177.837712 5.508447 L 161.32831 28.65524 C 160.655705 29.560199 160.148194 30.275607 159.805777 30.801462 C 159.466417 31.327317 159.295208 31.746166 159.295208 32.051896 C 159.295208 32.360683 159.438901 32.513548 159.729344 32.513548 C 160.851372 32.513548 162.126265 31.99075 163.550965 30.948212 C 164.862545 30.00045 166.29336 28.57575 167.843409 26.674111 C 168.133853 26.304178 168.335634 26.059595 168.451812 25.943417 L 168.833974 26.239975 C 168.708624 26.368382 168.485442 26.622137 168.164426 27.004299 C 167.846467 27.386461 167.452076 27.826712 166.984309 28.325051 C 166.513485 28.823391 165.98763 29.349246 165.403687 29.905674 C 164.816686 30.462102 164.196055 30.97267 163.535679 31.437379 C 162.040661 32.501319 160.722966 33.033288 159.582594 33.033288 C 158.439165 33.033288 157.876623 32.660298 157.885794 31.914318 C 157.898024 31.16528 158.588973 29.975992 159.955584 28.343395 Z M 154.776524 26.814747 C 153.119469 28.829505 152.290942 30.440701 152.290942 31.645276 C 152.290942 32.223105 152.581385 32.513548 153.159214 32.513548 C 154.19258 32.513548 155.626452 31.672791 157.470002 29.994335 L 158.894702 28.621609 C 159.717115 27.808368 160.38972 27.034872 160.909461 26.291949 L 162.456453 24.084581 C 162.722438 23.552611 162.856959 23.094017 162.856959 22.711855 C 162.856959 22.329693 162.71938 22.054536 162.441166 21.886385 C 162.162952 21.718233 161.872509 21.635686 161.569837 21.635686 C 161.270222 21.635686 160.891117 21.736577 160.432523 21.938359 C 159.973928 22.143198 159.457245 22.458099 158.876359 22.886121 C 157.613695 23.791081 156.247083 25.099604 154.776524 26.814747 Z M 178.250447 33.033288 C 177.091732 33.033288 176.510845 32.675585 176.510845 31.95712 C 176.510845 31.367062 176.847148 30.624139 177.519753 29.734465 L 178.614265 28.343395 L 178.44 28.273077 C 176.495559 30.669998 174.658124 32.177245 172.930751 32.791762 C 172.45687 32.953799 172.047192 33.033288 171.698661 33.033288 C 170.27396 33.033288 169.56161 32.275079 169.56161 30.75866 C 169.56161 28.973198 170.27396 27.270284 171.698661 25.649917 C 173.808195 23.19185 175.926902 21.739635 178.057837 21.287155 C 178.696812 21.158748 179.241011 21.097602 179.693491 21.097602 C 180.142914 21.097602 180.500617 21.128175 180.760488 21.192378 C 181.020358 21.256582 181.249655 21.345243 181.448379 21.461421 C 181.864172 21.727405 182.072068 22.054536 182.072068 22.442813 C 182.072068 22.831089 182.004807 23.197965 181.864172 23.546497 L 183.567086 21.443077 C 183.87893 21.537853 184.169373 21.583712 184.435358 21.583712 C 185.120193 21.583712 185.612417 21.559254 185.912032 21.513395 L 180.057309 28.569635 C 178.666239 30.190002 177.972233 31.330374 177.972233 31.99075 C 177.972233 32.36374 178.192359 32.547178 178.632609 32.547178 C 179.07286 32.547178 179.580371 32.415714 180.152086 32.14973 C 180.726857 31.880687 181.295515 31.541327 181.864172 31.122478 C 182.432829 30.706686 182.9862 30.241976 183.524284 29.734465 C 184.062368 29.223897 184.560707 28.725557 185.019302 28.239447 C 185.474839 27.753337 185.878402 27.300857 186.226934 26.882007 L 187.061576 25.943417 L 187.425394 26.239975 L 186.538778 27.248883 C 183.203268 31.107191 180.439472 33.033288 178.250447 33.033288 Z M 173.435205 26.778059 C 171.802609 28.759188 170.98631 30.382612 170.98631 31.645276 C 170.98631 32.223105 171.246181 32.513548 171.768978 32.513548 C 173.459663 32.513548 175.896329 30.642482 179.085089 26.900351 L 180.54342 25.145463 C 181.237426 24.090696 181.585958 23.326372 181.585958 22.852491 C 181.585958 22.03925 181.179337 21.635686 180.369154 21.635686 C 179.268527 21.635686 177.687905 22.574277 175.624229 24.451457 C 174.917994 25.099604 174.190357 25.876157 173.435205 26.778059 Z M 224.935366 31.834828 C 224.935366 32.320938 225.271669 32.565522 225.944274 32.565522 C 226.953182 32.565522 228.151642 32.152787 229.542712 31.330374 C 229.995192 31.064389 230.392641 30.764774 230.741173 30.428472 C 230.799261 30.462102 230.826777 30.538534 230.826777 30.654711 C 230.826777 30.862608 230.799261 30.997129 230.741173 31.05216 C 229.628317 31.969349 228.286163 32.583866 226.708598 32.89571 C 226.292806 32.987429 225.831154 33.033288 225.3267 33.033288 C 224.825304 33.033288 224.400339 32.877366 224.057922 32.565522 C 223.718562 32.253678 223.547354 31.932661 223.547354 31.608588 C 223.547354 31.284515 223.577927 30.997129 223.64213 30.740316 C 223.706333 30.48656 223.825568 30.168601 223.999834 29.786439 C 224.785559 28.059067 226.222488 25.863928 228.307564 23.197965 L 231.03773 19.862454 L 233.902417 16.612548 L 236.718187 13.570538 L 239.378036 10.861773 L 241.689352 8.550457 C 241.34082 8.791983 240.970887 9.070197 240.576496 9.382042 L 239.274087 10.479611 L 235.467753 13.937414 L 229.227811 19.844111 C 225.984019 22.925866 222.403925 26.756658 218.490585 31.330374 C 217.597854 32.36374 217.007796 32.877366 216.717353 32.877366 C 216.634806 32.877366 216.552259 32.822335 216.463597 32.712272 C 216.377993 32.602209 216.335191 32.317881 216.335191 31.862344 C 216.335191 31.403749 216.488056 30.709743 216.793785 29.777267 C 217.102572 28.844792 217.542823 27.805311 218.114538 26.655768 C 218.689309 25.509281 219.383316 24.274133 220.202671 22.947267 C 221.018969 21.6204 221.936158 20.238502 222.954238 18.801573 C 225.10046 15.802365 227.503495 12.800099 230.166401 9.800891 L 228.793675 11.121643 L 226.60465 13.362642 L 223.510666 16.646178 L 219.462805 21.060915 C 214.458011 26.551819 210.21754 30.190002 206.741394 31.975464 C 205.374783 32.66947 204.145749 33.018002 203.057352 33.018002 C 201.968954 33.018002 201.152656 32.813163 200.608457 32.400428 C 200.064258 31.987693 199.792159 31.452666 199.792159 30.79229 C 199.792159 30.30618 199.923623 29.954591 200.189608 29.734465 C 200.596228 29.385933 200.94476 29.211667 201.232146 29.211667 C 201.941439 29.211667 202.293028 29.477652 202.293028 30.009622 C 202.293028 30.241976 202.195194 30.446815 201.99647 30.618024 C 201.800803 30.79229 201.54399 30.880951 201.226031 30.880951 C 200.905015 30.880951 200.654317 30.816748 200.467822 30.688342 L 200.452535 30.896238 C 200.452535 31.406806 200.669603 31.81037 201.103739 32.10387 C 201.537875 32.400428 202.10959 32.547178 202.82194 32.547178 C 203.537347 32.547178 204.231354 32.440173 204.910074 32.226162 C 205.585736 32.012151 206.340888 31.657505 207.17553 31.16528 C 208.010172 30.673055 208.93959 30.027966 209.966842 29.230011 C 210.991037 28.429 212.128351 27.450665 213.381842 26.291949 C 214.632277 25.133234 216.017232 23.778851 217.533651 22.225745 L 222.55679 16.909106 C 225.534596 13.653085 228.069095 11.09107 230.166401 9.22612 C 231.685877 7.883966 232.578608 7.211361 232.844593 7.211361 C 233.156437 7.211361 233.312359 7.26945 233.312359 7.385627 C 233.312359 7.455945 233.242041 7.553778 233.104463 7.679127 L 232.618353 8.097977 C 232.074154 8.584087 231.511611 9.232234 230.930725 10.042418 L 229.056602 12.772584 L 224.485944 19.828824 C 220.245473 26.719971 217.85161 30.734201 217.307411 31.871516 L 220.208786 28.551291 L 222.731055 25.735521 L 225.127976 23.164335 L 227.628845 20.626779 L 230.462959 17.847696 L 233.887131 14.579446 C 239.15791 9.63274 242.478134 7.159387 243.844746 7.159387 C 243.960923 7.159387 244.019012 7.205247 244.019012 7.296965 C 244.019012 7.391742 243.866147 7.538492 243.566532 7.740273 C 243.263859 7.945112 242.835838 8.28753 242.27941 8.77364 C 241.722982 9.262807 241.016746 9.975157 240.160703 10.913747 C 239.301603 11.852337 238.421102 12.876532 237.519199 13.989388 L 234.773747 17.517508 L 231.991607 21.287155 C 227.821454 27.147992 225.620201 30.287836 225.387846 30.706686 C 225.088231 31.250884 224.935366 31.626932 224.935366 31.834828 Z M 245.232759 31.495468 C 244.499007 31.966292 243.70411 32.351511 242.854182 32.651126 C 242.001196 32.953799 241.19407 33.103606 240.429746 33.103606 C 239.665421 33.103606 239.081478 33.027174 238.680972 32.868194 C 238.283523 32.712272 237.956393 32.495204 237.69958 32.21699 C 236.611182 31.036874 236.617297 29.294214 237.717923 26.985956 C 238.191804 25.967876 238.910269 25.038458 239.873318 24.197701 C 240.833309 23.356944 241.68018 22.730199 242.410874 22.311349 C 243.823345 21.501165 245.150212 21.097602 246.388417 21.097602 C 247.61745 21.097602 248.259482 21.479764 248.317571 22.244089 C 248.400118 23.482294 246.892871 24.833619 243.798886 26.291949 C 242.664629 26.823919 241.233815 27.374232 239.506442 27.942889 C 238.824665 29.055745 238.482248 29.960705 238.482248 30.663883 C 238.482248 31.364004 238.665685 31.862344 239.029504 32.155844 C 239.393322 32.452402 239.928349 32.599152 240.62847 32.599152 C 241.328591 32.599152 242.0868 32.449345 242.906156 32.14973 C 243.722454 31.847057 244.486778 31.464895 245.199128 31.000186 C 245.911478 30.538534 246.556568 30.03408 247.137454 29.489881 C 247.715283 28.945683 248.228909 28.422885 248.675274 27.924546 C 249.12164 27.426206 249.485458 26.995127 249.769787 26.631309 C 250.054115 26.267491 250.246725 26.038194 250.350673 25.943417 L 250.717549 26.239975 C 250.564684 26.368382 250.338444 26.628252 250.029657 27.022643 C 249.723927 27.417034 249.335651 27.8634 248.864827 28.367854 C 248.397061 28.872308 247.858976 29.404277 247.250574 29.957648 C 246.642172 30.514076 245.969567 31.027702 245.232759 31.495468 Z M 239.906948 27.334487 C 243.407552 26.105454 245.66078 24.885593 246.666631 23.668789 C 247.002933 23.262168 247.171085 22.867777 247.171085 22.485615 C 247.171085 21.837468 246.871469 21.513395 246.269182 21.513395 C 245.202186 21.513395 243.869204 22.44587 242.270238 24.310821 C 241.157382 25.607115 240.371657 26.616023 239.906948 27.334487 Z M 262.417823 17.291268 C 262.249671 17.441076 262.060119 17.56031 261.852223 17.645914 C 261.644327 17.734576 261.405858 17.777378 261.139873 17.777378 C 260.873888 17.777378 260.644591 17.676487 260.455038 17.471649 C 260.262429 17.269867 260.167652 17.04057 260.167652 16.786814 C 260.167652 16.530001 260.213512 16.306819 260.305231 16.108094 C 260.400007 15.912427 260.525356 15.738161 260.687393 15.588354 C 261.023695 15.239822 261.393628 15.065556 261.791077 15.065556 C 262.191583 15.065556 262.488141 15.172561 262.677693 15.386572 C 262.870303 15.600583 262.965079 15.835995 262.965079 16.08975 C 262.965079 16.346563 262.916162 16.572803 262.818329 16.76847 C 262.717438 16.967195 262.585974 17.138403 262.417823 17.291268 Z M 251.374867 31.999922 C 251.374867 32.366798 251.714227 32.547178 252.399062 32.547178 C 253.083896 32.547178 253.728986 32.391256 254.337388 32.079412 C 254.94579 31.767567 255.560306 31.376233 256.17788 30.90541 C 256.798512 30.437643 257.397742 29.924018 257.978628 29.36759 L 259.540907 27.805311 C 260.005616 27.316144 260.387778 26.897294 260.687393 26.542648 C 260.990065 26.191058 261.170446 25.98622 261.228534 25.928131 L 261.574009 26.239975 C 261.457832 26.356152 261.240764 26.600736 260.922805 26.979841 C 260.604846 27.355888 260.207397 27.796139 259.733516 28.300593 C 259.256578 28.80199 258.724608 29.333959 258.13455 29.890387 C 257.544492 30.446815 256.923861 30.954327 256.275714 31.419036 C 254.780696 32.495204 253.472173 33.033288 252.347088 33.033288 C 251.628623 33.033288 251.053851 32.904882 250.62583 32.645012 C 250.197808 32.382084 249.983797 32.085526 249.983797 31.749224 C 249.983797 31.412921 250.017428 31.110249 250.087746 30.844264 C 250.158063 30.578279 250.283413 30.26032 250.469908 29.890387 C 250.656403 29.517397 250.913216 29.083261 251.243404 28.584922 C 251.573592 28.086582 252.001613 27.490409 252.530526 26.796403 C 253.056381 26.102397 253.695356 25.295271 254.450508 24.381139 L 257.125642 21.216837 C 257.266278 21.253524 257.547549 21.268811 257.978628 21.268811 L 258.794926 21.268811 C 259.094541 21.268811 259.339125 21.259639 259.52562 21.235181 C 255.688713 25.811954 253.530262 28.413713 253.050266 29.046573 C 252.57027 29.679434 252.212567 30.174716 251.983269 30.53242 C 251.576649 31.146936 251.374867 31.636104 251.374867 31.999922 Z M 271.008826 33.033288 C 269.850111 33.033288 269.272282 32.675585 269.272282 31.95712 C 269.272282 31.367062 269.608584 30.624139 270.278132 29.734465 L 271.375702 28.343395 L 271.201436 28.273077 C 269.253938 30.669998 267.416503 32.177245 265.692187 32.791762 C 265.215249 32.953799 264.805571 33.033288 264.45704 33.033288 C 263.032339 33.033288 262.319989 32.275079 262.319989 30.75866 C 262.319989 28.973198 263.032339 27.270284 264.45704 25.649917 C 266.566574 23.19185 268.685281 21.739635 270.819274 21.287155 C 271.455192 21.158748 271.99939 21.097602 272.45187 21.097602 C 272.90435 21.097602 273.258997 21.128175 273.518867 21.192378 C 273.781794 21.256582 274.011091 21.345243 274.206758 21.461421 C 274.622551 21.727405 274.833504 22.054536 274.833504 22.442813 C 274.833504 22.831089 274.763186 23.197965 274.622551 23.546497 L 276.325465 21.443077 C 276.640367 21.537853 276.93081 21.583712 277.196795 21.583712 C 277.878572 21.583712 278.370796 21.559254 278.673469 21.513395 L 272.815689 28.569635 C 271.427676 30.190002 270.730612 31.330374 270.730612 31.99075 C 270.730612 32.36374 270.950738 32.547178 271.390988 32.547178 C 271.831239 32.547178 272.33875 32.415714 272.913522 32.14973 C 273.485236 31.880687 274.056951 31.541327 274.622551 31.122478 C 275.191208 30.706686 275.744579 30.241976 276.282663 29.734465 C 276.820747 29.223897 277.319086 28.725557 277.777681 28.239447 C 278.236275 27.753337 278.636781 27.300857 278.985313 26.882007 L 279.819955 25.943417 L 280.183773 26.239975 L 279.297157 27.248883 C 275.961647 31.107191 273.197851 33.033288 271.008826 33.033288 Z M 266.196641 26.778059 C 264.560988 28.759188 263.744689 30.382612 263.744689 31.645276 C 263.744689 32.223105 264.00456 32.513548 264.527357 32.513548 C 266.218042 32.513548 268.657765 30.642482 271.843468 26.900351 L 273.301799 25.145463 C 273.998862 24.090696 274.344337 23.326372 274.344337 22.852491 C 274.344337 22.03925 273.940774 21.635686 273.13059 21.635686 C 272.029963 21.635686 270.446284 22.574277 268.385666 24.451457 C 267.67943 25.099604 266.948736 25.876157 266.196641 26.778059 Z M 310.093306 33.329846 C 309.912926 33.329846 309.824264 33.265643 309.824264 33.140294 C 309.824264 33.011887 309.857894 32.920168 309.928212 32.86208 C 310.48464 32.431001 310.989094 31.608588 311.441574 30.391784 C 311.612782 29.896502 311.805392 29.315616 312.013288 28.65524 L 312.743982 26.258319 C 314.122823 21.761036 316.284332 17.006939 319.225451 11.989916 L 314.569188 17.740691 L 311.23062 21.617343 L 309.163888 23.928659 C 304.969277 28.517661 301.69797 31.354832 299.343851 32.44323 C 298.487808 32.837621 297.732656 33.033288 297.078394 33.033288 C 296.424133 33.033288 295.876877 32.9752 295.436626 32.852908 C 294.996375 32.730616 294.6295 32.559407 294.339057 32.339282 C 293.773457 31.91126 293.489128 31.360947 293.489128 30.688342 C 293.489128 30.22669 293.623649 29.896502 293.889634 29.697778 C 294.284025 29.385933 294.6295 29.230011 294.932172 29.230011 C 295.638408 29.230011 295.989997 29.495996 295.989997 30.027966 C 295.989997 30.26032 295.892163 30.462102 295.696496 30.636368 C 295.497772 30.810634 295.247074 30.896238 294.941344 30.896238 C 294.632557 30.896238 294.381859 30.838149 294.183134 30.721972 L 294.183134 30.828977 C 294.183134 31.336489 294.406317 31.755338 294.852682 32.079412 C 295.299048 32.403485 295.892163 32.565522 296.635086 32.565522 C 297.374952 32.565522 298.12399 32.403485 298.876085 32.079412 C 299.62818 31.755338 300.508681 31.217254 301.517589 30.462102 C 303.685212 28.863136 306.283914 26.362267 309.31981 22.956439 L 314.135052 17.428846 C 318.085079 12.702266 320.307734 9.969043 320.806073 9.22612 C 321.017027 8.972364 321.166834 8.843957 321.258553 8.843957 C 321.350272 8.843957 321.399189 8.883702 321.399189 8.966249 C 321.399189 9.048796 321.374731 9.134401 321.328871 9.22612 L 321.084287 9.678599 C 320.656266 10.384835 320.329135 11.139987 320.102895 11.947114 C 319.876655 12.751183 319.702389 13.390158 319.583155 13.857924 C 319.460863 14.328748 319.31717 14.833202 319.155133 15.3774 L 318.598705 17.22095 C 317.776292 19.816595 316.782671 22.231859 315.611726 24.466743 C 315.611726 24.466743 314.602819 26.27972 312.58806 29.905674 L 317.852725 23.650445 L 320.164041 21.008941 L 322.560962 18.367436 L 324.908965 15.866568 C 329.332874 11.277566 333.053604 8.498483 336.065041 7.523205 C 337.08312 7.186903 338.14706 7.015694 339.253801 7.012637 C 340.360542 7.006522 341.2227 7.272507 341.843331 7.810591 C 342.463963 8.348675 342.778864 9.109942 342.791093 10.094392 C 342.812494 11.195019 342.256066 12.424052 341.121809 13.781492 C 339.938636 15.169504 338.455847 16.294589 336.673443 17.150632 C 336.254593 17.349357 335.958035 17.44719 335.777655 17.44719 C 335.597274 17.44719 335.508613 17.404388 335.508613 17.315726 C 335.508613 17.230122 335.731795 17.095601 336.178161 16.915221 C 336.624526 16.737897 337.19624 16.410767 337.899419 15.933828 C 338.59954 15.459947 339.2324 14.927978 339.801057 14.334862 C 341.063721 12.98048 341.696581 11.665842 341.696581 10.39095 C 341.696581 9.476818 341.44894 8.767525 340.956715 8.263071 C 340.464491 7.758617 339.75214 7.507919 338.819665 7.507919 C 337.887189 7.507919 336.875224 7.7097 335.786827 8.116321 C 334.698429 8.519884 333.509141 9.168031 332.225076 10.060762 C 329.68752 11.809535 326.624109 14.649764 323.031785 18.575333 L 318.980867 23.112361 L 315.611726 27.074617 L 311.041068 32.513548 C 310.588588 33.057747 310.273687 33.329846 310.093306 33.329846 Z M 306.782254 13.01411 C 306.574358 13.258694 306.354232 13.380986 306.121878 13.380986 C 305.889523 13.380986 305.687742 13.307611 305.513476 13.163918 C 305.33921 13.017167 305.253606 12.839844 305.253606 12.625833 C 305.253606 12.408765 305.326981 12.22227 305.470674 12.060234 C 305.614367 11.898197 305.810033 11.81565 306.054617 11.81565 C 306.296144 11.81565 306.519326 11.870681 306.721108 11.980744 C 306.925947 12.090806 307.106327 12.249786 307.268364 12.460739 C 307.616896 12.910162 307.791162 13.481876 307.791162 14.169768 C 307.791162 14.860717 307.63524 15.49052 307.320338 16.065292 C 307.008494 16.640064 306.598816 17.129231 306.088247 17.532794 C 304.99985 18.401067 303.743301 18.83826 302.315543 18.83826 C 300.869442 18.83826 299.674039 18.437754 298.738506 17.636743 C 297.692911 16.76847 297.173171 15.57001 297.173171 14.041362 C 297.173171 12.396536 297.89775 11.02381 299.343851 9.923183 C 300.805239 8.810327 302.688534 8.253899 304.993735 8.253899 C 306.372576 8.253899 307.418172 8.360905 308.130522 8.574915 C 308.842872 8.788926 309.460446 9.002937 309.980186 9.216948 C 310.502984 9.434016 311.022724 9.66637 311.545522 9.923183 L 313.315697 10.739481 C 314.220656 11.109414 314.957465 11.295909 315.523065 11.295909 C 316.623692 11.295909 317.605084 10.913747 318.461127 10.149423 C 318.519215 10.100506 318.586476 10.079105 318.659851 10.079105 C 318.736284 10.079105 318.772971 10.11885 318.772971 10.201397 C 318.772971 10.293116 318.693481 10.430694 318.531445 10.61719 C 317.84661 11.302024 316.816301 11.788134 315.437461 12.07552 C 315.067528 12.145838 314.72511 12.182525 314.413266 12.182525 C 314.098365 12.182525 313.728432 12.145838 313.30041 12.07552 C 312.872389 12.008259 312.435195 11.913483 311.994945 11.800363 C 311.105271 11.54355 310.295088 11.207248 309.573566 10.791455 C 308.848986 10.372606 308.228355 10.045475 307.711672 9.810063 C 307.198046 9.571594 306.736394 9.388156 306.329774 9.262807 C 305.660226 9.042682 304.905074 8.932619 304.073489 8.932619 C 303.238847 8.932619 302.434778 9.061026 301.664339 9.323953 C 300.893901 9.583823 300.215181 9.944584 299.622065 10.409293 C 298.359402 11.427373 297.729599 12.67475 297.729599 14.14531 C 297.729599 15.383515 298.139276 16.404652 298.961689 17.202606 C 299.796331 18.015847 300.890843 18.41941 302.248283 18.41941 C 303.532348 18.41941 304.663547 18.043363 305.635768 17.291268 C 306.714993 16.478027 307.253077 15.453833 307.253077 14.215628 C 307.253077 13.750919 307.097155 13.350413 306.782254 13.01411 Z M 333.573344 30.202232 C 333.145322 30.202232 332.830421 30.027966 332.634754 29.679434 C 331.255913 31.24477 329.76701 32.281193 328.168044 32.791762 C 327.636074 32.953799 327.116334 33.033288 326.61188 33.033288 C 326.107426 33.033288 325.676347 32.978257 325.318643 32.86208 C 324.957882 32.745902 324.664382 32.583866 324.432027 32.372912 C 323.493437 31.562729 323.401718 30.168601 324.153813 28.187473 C 324.444256 27.41092 324.817246 26.68634 325.275841 26.013735 C 325.731378 25.34113 326.248061 24.720499 326.819776 24.145727 C 327.394548 23.570955 328.012121 23.060387 328.672498 22.607907 C 330.167516 21.598999 331.625846 21.097602 333.050546 21.097602 C 333.665063 21.097602 334.193975 21.256582 334.64034 21.574541 C 335.086706 21.892499 335.328232 22.351094 335.361862 22.947267 C 335.39855 23.54344 335.361862 24.102925 335.257914 24.622665 C 335.153966 25.145463 334.998044 25.665203 334.790148 26.188001 C 334.371298 27.254998 333.78124 28.260848 333.016916 29.211667 C 333.096406 29.54797 333.319588 29.716121 333.686464 29.716121 C 334.050282 29.716121 334.398814 29.630517 334.729002 29.462366 C 335.05919 29.294214 335.389378 29.086318 335.719566 28.838677 C 336.049754 28.587979 336.373828 28.309765 336.691787 28.004035 C 337.009745 27.698306 337.303246 27.404805 337.569231 27.126591 L 338.229607 26.395897 C 338.416102 26.175772 338.547566 26.025964 338.630113 25.943417 L 339.012275 26.239975 C 338.862467 26.377554 338.669857 26.576278 338.437503 26.830033 C 338.205148 27.086846 337.945278 27.358946 337.654835 27.646332 C 337.654835 27.646332 337.349105 27.949004 336.734589 28.551291 C 335.542243 29.651918 334.487476 30.202232 333.573344 30.202232 Z M 326.361181 32.372912 C 326.544619 32.467688 326.807547 32.513548 327.143849 32.513548 C 327.895944 32.513548 328.86205 32.091641 330.045224 31.24477 C 330.947126 30.596623 331.754252 29.847585 332.460488 29.003771 L 332.460488 28.933453 C 332.460488 27.949004 332.830421 27.206081 333.573344 26.707742 C 333.769011 26.570163 333.955506 26.47233 334.129772 26.414241 C 334.683143 25.231067 334.94607 24.264962 334.909383 23.512867 C 334.842122 22.317464 334.401871 21.721291 333.58863 21.721291 C 332.222019 21.721291 330.305094 23.262168 327.837856 26.343923 C 326.251119 28.337281 325.502081 29.890387 325.596857 31.000186 C 325.596857 31.639161 325.850613 32.097755 326.361181 32.372912 Z M 350.694205 17.291268 C 350.526054 17.441076 350.339559 17.56031 350.131662 17.645914 C 349.920709 17.734576 349.685297 17.777378 349.419312 17.777378 C 349.15027 17.777378 348.92403 17.676487 348.731421 17.471649 C 348.538811 17.269867 348.444035 17.04057 348.444035 16.786814 C 348.444035 16.530001 348.489894 16.306819 348.58467 16.108094 C 348.676389 15.912427 348.804796 15.738161 348.966832 15.588354 C 349.303135 15.239822 349.670011 15.065556 350.070516 15.065556 C 350.467965 15.065556 350.764523 15.172561 350.957132 15.386572 C 351.146685 15.600583 351.241461 15.835995 351.241461 16.08975 C 351.241461 16.346563 351.192544 16.572803 351.094711 16.76847 C 350.996877 16.967195 350.862356 17.138403 350.694205 17.291268 Z M 339.65125 31.999922 C 339.65125 32.366798 339.993667 32.547178 340.675444 32.547178 C 341.360278 32.547178 342.005368 32.391256 342.61377 32.079412 C 343.222172 31.767567 343.836689 31.376233 344.45732 30.90541 C 345.074894 30.437643 345.677181 29.924018 346.25501 29.36759 L 347.820346 27.805311 C 348.281998 27.316144 348.66416 26.897294 348.966832 26.542648 C 349.266447 26.191058 349.446828 25.98622 349.504917 25.928131 L 349.853448 26.239975 C 349.737271 26.356152 349.520203 26.600736 349.199187 26.979841 C 348.881228 27.355888 348.48378 27.796139 348.009899 28.300593 C 347.536018 28.80199 347.000991 29.333959 346.410932 29.890387 C 345.820874 30.446815 345.200243 30.954327 344.552096 31.419036 C 343.057078 32.495204 341.748555 33.033288 340.62347 33.033288 C 339.905005 33.033288 339.333291 32.904882 338.905269 32.645012 C 338.47419 32.382084 338.26018 32.085526 338.26018 31.749224 C 338.26018 31.412921 338.296867 31.110249 338.364128 30.844264 C 338.434446 30.578279 338.562852 30.26032 338.74629 29.890387 C 338.932785 29.517397 339.189598 29.083261 339.519786 28.584922 C 339.849974 28.086582 340.281053 27.490409 340.806908 26.796403 C 341.332763 26.102397 341.974795 25.295271 342.72689 24.381139 L 345.402025 21.216837 C 345.54266 21.253524 345.826989 21.268811 346.25501 21.268811 L 347.071308 21.268811 C 347.373981 21.268811 347.615507 21.259639 347.802002 21.235181 C 343.968152 25.811954 341.809701 28.413713 341.329705 29.046573 C 340.846653 29.679434 340.492006 30.174716 340.259652 30.53242 C 339.853031 31.146936 339.65125 31.636104 339.65125 31.999922 Z M 350.614715 31.99075 C 350.614715 32.339282 350.892929 32.519662 351.449357 32.531892 C 352.005785 32.541063 352.56527 32.421829 353.127813 32.165016 C 353.687298 31.91126 354.246784 31.587187 354.803212 31.192796 C 355.35964 30.798404 355.897724 30.355096 356.420522 29.862872 C 356.940262 29.370647 357.426372 28.881479 357.878852 28.395369 C 358.331332 27.909259 358.737952 27.450665 359.095656 27.022643 L 360.000616 25.943417 L 360.382778 26.239975 L 359.477818 27.282513 C 356.246256 31.116363 353.528319 33.033288 351.327065 33.033288 C 350.691148 33.033288 350.211152 32.907939 349.893193 32.651126 C 349.575234 32.397371 349.416255 32.119157 349.416255 31.819541 C 349.416255 31.516869 349.431541 31.269228 349.459057 31.070504 C 349.48963 30.874837 349.550776 30.657769 349.642495 30.4193 C 349.734214 30.180831 349.871792 29.899559 350.049115 29.575486 C 350.229496 29.251412 350.471022 28.857021 350.770637 28.395369 L 353.482459 24.485087 L 357.967514 18.177884 L 356.59173 18.177884 C 356.246256 18.177884 356.07199 18.09228 356.07199 17.924128 C 356.07199 17.755977 356.292115 17.67343 356.732366 17.67343 L 358.312988 17.67343 L 361.529264 13.154746 C 362.339448 13.283152 363.143517 13.283152 363.944528 13.154746 L 360.590674 17.67343 L 365.072671 17.67343 C 365.396744 17.67343 365.558781 17.755977 365.558781 17.924128 C 365.558781 18.09228 365.415088 18.177884 365.124645 18.177884 L 360.208512 18.177884 L 353.014693 27.961233 C 351.773431 29.710007 351.064138 30.786175 350.883757 31.192796 C 350.706434 31.599416 350.614715 31.865401 350.614715 31.99075 Z M 369.582183 31.495468 C 368.845375 31.966292 368.053535 32.351511 367.200549 32.651126 C 366.350621 32.953799 365.540437 33.103606 364.776113 33.103606 C 364.011789 33.103606 363.430903 33.027174 363.030397 32.868194 C 362.629891 32.712272 362.30276 32.495204 362.049005 32.21699 C 360.960607 31.036874 360.963664 29.294214 362.064291 26.985956 C 362.541229 25.967876 363.259694 25.038458 364.219685 24.197701 C 365.182734 23.356944 366.026547 22.730199 366.757241 22.311349 C 368.169712 21.501165 369.496579 21.097602 370.737842 21.097602 C 371.963817 21.097602 372.608907 21.479764 372.666996 22.244089 C 372.746485 23.482294 371.242295 24.833619 368.148311 26.291949 C 367.014054 26.823919 365.583239 27.374232 363.855867 27.942889 C 363.171032 29.055745 362.831673 29.960705 362.831673 30.663883 C 362.831673 31.364004 363.012053 31.862344 363.378929 32.155844 C 363.742747 32.452402 364.274717 32.599152 364.977895 32.599152 C 365.678016 32.599152 366.436225 32.449345 367.252523 32.14973 C 368.068822 31.847057 368.833146 31.464895 369.545496 31.000186 C 370.260903 30.538534 370.905993 30.03408 371.483822 29.489881 C 372.064708 28.945683 372.575277 28.422885 373.021642 27.924546 C 373.468007 27.426206 373.834883 26.995127 374.116154 26.631309 C 374.400483 26.267491 374.59615 26.038194 374.700098 25.943417 L 375.063916 26.239975 C 374.914109 26.368382 374.684811 26.628252 374.379082 27.022643 C 374.070295 27.417034 373.682018 27.8634 373.214252 28.367854 C 372.743428 28.872308 372.205344 29.404277 371.596942 29.957648 C 370.98854 30.514076 370.315935 31.027702 369.582183 31.495468 Z M 364.256373 27.334487 C 367.75392 26.105454 370.007148 24.885593 371.016056 23.668789 C 371.352358 23.262168 371.520509 22.867777 371.520509 22.485615 C 371.520509 21.837468 371.217837 21.513395 370.61555 21.513395 C 369.548553 21.513395 368.218629 22.44587 366.619663 24.310821 C 365.506807 25.607115 364.718025 26.616023 364.256373 27.334487 Z M 364.256373 27.334487 " stroke="#e4bc7f" stroke-width="1.334801" stroke-opacity="1" stroke-miterlimit="4"/></g></svg>